<mxfile host="app.diagrams.net" modified="2024-03-29T03:55:53.876Z" agent="Mozilla/5.0 (Windows NT 10.0; Win64; x64) AppleWebKit/537.36 (KHTML, like Gecko) Chrome/123.0.0.0 Safari/537.36" etag="jue8vIAkZctGNBOtMOC9" version="24.2.0" type="github">
  <diagram name="第 1 页" id="Fr5cbRcazwO-UYm_Rkgn">
    <mxGraphModel dx="2329" dy="652" grid="1" gridSize="10" guides="1" tooltips="1" connect="1" arrows="1" fold="1" page="1" pageScale="1" pageWidth="827" pageHeight="1169" math="0" shadow="0">
      <root>
        <mxCell id="0" />
        <mxCell id="1" parent="0" />
        <mxCell id="av2565oH3hsVs84lq1rJ-3" style="edgeStyle=orthogonalEdgeStyle;rounded=0;orthogonalLoop=1;jettySize=auto;html=1;exitX=1;exitY=0.5;exitDx=0;exitDy=0;" edge="1" parent="1" source="av2565oH3hsVs84lq1rJ-1">
          <mxGeometry relative="1" as="geometry">
            <mxPoint x="470" y="120" as="targetPoint" />
          </mxGeometry>
        </mxCell>
        <mxCell id="av2565oH3hsVs84lq1rJ-1" value="0x00000000009e7010" style="rounded=0;whiteSpace=wrap;html=1;" vertex="1" parent="1">
          <mxGeometry x="150" y="80" width="180" height="80" as="geometry" />
        </mxCell>
        <mxCell id="av2565oH3hsVs84lq1rJ-2" value="0x6020A0&lt;div&gt;heaparray&lt;br&gt;&lt;/div&gt;" style="text;strokeColor=none;align=center;fillColor=none;html=1;verticalAlign=middle;whiteSpace=wrap;rounded=0;" vertex="1" parent="1">
          <mxGeometry x="60" y="105" width="70" height="30" as="geometry" />
        </mxCell>
        <mxCell id="av2565oH3hsVs84lq1rJ-4" value="&lt;div&gt;0x0000000000000010&lt;/div&gt;" style="rounded=0;whiteSpace=wrap;html=1;" vertex="1" parent="1">
          <mxGeometry x="470" y="100" width="240" height="40" as="geometry" />
        </mxCell>
        <mxCell id="av2565oH3hsVs84lq1rJ-8" style="edgeStyle=orthogonalEdgeStyle;rounded=0;orthogonalLoop=1;jettySize=auto;html=1;exitX=1;exitY=0.5;exitDx=0;exitDy=0;entryX=0;entryY=0.5;entryDx=0;entryDy=0;" edge="1" parent="1" source="av2565oH3hsVs84lq1rJ-5" target="av2565oH3hsVs84lq1rJ-6">
          <mxGeometry relative="1" as="geometry" />
        </mxCell>
        <mxCell id="av2565oH3hsVs84lq1rJ-5" value="&lt;div&gt;&lt;span style=&quot;background-color: initial;&quot;&gt;0x00000000009e7030&lt;/span&gt;&lt;/div&gt;" style="rounded=0;whiteSpace=wrap;html=1;" vertex="1" parent="1">
          <mxGeometry x="470" y="140" width="240" height="50" as="geometry" />
        </mxCell>
        <mxCell id="av2565oH3hsVs84lq1rJ-36" style="edgeStyle=orthogonalEdgeStyle;rounded=0;orthogonalLoop=1;jettySize=auto;html=1;exitX=1;exitY=0.75;exitDx=0;exitDy=0;entryX=1;entryY=0.5;entryDx=0;entryDy=0;" edge="1" parent="1" source="av2565oH3hsVs84lq1rJ-6" target="av2565oH3hsVs84lq1rJ-29">
          <mxGeometry relative="1" as="geometry" />
        </mxCell>
        <mxCell id="av2565oH3hsVs84lq1rJ-6" value="aaaaaaaaaaa&lt;div&gt;binsh&lt;/div&gt;" style="rounded=0;whiteSpace=wrap;html=1;" vertex="1" parent="1">
          <mxGeometry x="870" y="142.5" width="240" height="45" as="geometry" />
        </mxCell>
        <mxCell id="av2565oH3hsVs84lq1rJ-9" value="0x0000000000000021" style="rounded=0;whiteSpace=wrap;html=1;" vertex="1" parent="1">
          <mxGeometry x="470" y="60" width="240" height="40" as="geometry" />
        </mxCell>
        <mxCell id="av2565oH3hsVs84lq1rJ-10" value="0x0000000000000000" style="rounded=0;whiteSpace=wrap;html=1;" vertex="1" parent="1">
          <mxGeometry x="470" y="20" width="240" height="40" as="geometry" />
        </mxCell>
        <mxCell id="av2565oH3hsVs84lq1rJ-11" value="0x00000000009e7000" style="text;strokeColor=none;align=center;fillColor=none;html=1;verticalAlign=middle;whiteSpace=wrap;rounded=0;" vertex="1" parent="1">
          <mxGeometry x="320" y="20" width="150" height="30" as="geometry" />
        </mxCell>
        <mxCell id="av2565oH3hsVs84lq1rJ-12" value="0x00000000009e7008" style="text;strokeColor=none;align=center;fillColor=none;html=1;verticalAlign=middle;whiteSpace=wrap;rounded=0;" vertex="1" parent="1">
          <mxGeometry x="320" y="60" width="150" height="30" as="geometry" />
        </mxCell>
        <mxCell id="av2565oH3hsVs84lq1rJ-13" value="0x00000000009e7020" style="text;strokeColor=none;align=center;fillColor=none;html=1;verticalAlign=middle;whiteSpace=wrap;rounded=0;" vertex="1" parent="1">
          <mxGeometry x="740" y="60" width="120" height="30" as="geometry" />
        </mxCell>
        <mxCell id="av2565oH3hsVs84lq1rJ-17" value="0x00000000009e7028" style="text;strokeColor=none;align=center;fillColor=none;html=1;verticalAlign=middle;whiteSpace=wrap;rounded=0;" vertex="1" parent="1">
          <mxGeometry x="740" y="106.25" width="120" height="30" as="geometry" />
        </mxCell>
        <mxCell id="av2565oH3hsVs84lq1rJ-18" value="0x0000000000000000" style="rounded=0;whiteSpace=wrap;html=1;" vertex="1" parent="1">
          <mxGeometry x="870" y="60" width="240" height="40" as="geometry" />
        </mxCell>
        <mxCell id="av2565oH3hsVs84lq1rJ-19" value="0x0000000000000021" style="rounded=0;whiteSpace=wrap;html=1;" vertex="1" parent="1">
          <mxGeometry x="870" y="102.5" width="240" height="40" as="geometry" />
        </mxCell>
        <mxCell id="av2565oH3hsVs84lq1rJ-20" value="&lt;b&gt;add(0x18)和add(0x10)的效果是一样的&lt;/b&gt;&lt;div&gt;&lt;b&gt;因为ps记录的是上一个空闲的堆块&lt;/b&gt;&lt;/div&gt;&lt;div&gt;&lt;b&gt;既然malloc了就肯定不适空闲的堆块了。&lt;/b&gt;&lt;/div&gt;&lt;div&gt;&lt;b&gt;那么溢出就会一处到s未知&lt;/b&gt;&lt;/div&gt;&lt;div&gt;&lt;b&gt;&lt;br&gt;&lt;/b&gt;&lt;/div&gt;" style="text;strokeColor=none;align=center;fillColor=none;html=1;verticalAlign=middle;whiteSpace=wrap;rounded=0;" vertex="1" parent="1">
          <mxGeometry x="-60" y="470" width="340" height="100" as="geometry" />
        </mxCell>
        <mxCell id="av2565oH3hsVs84lq1rJ-21" style="edgeStyle=orthogonalEdgeStyle;rounded=0;orthogonalLoop=1;jettySize=auto;html=1;exitX=1;exitY=0.5;exitDx=0;exitDy=0;" edge="1" parent="1" source="av2565oH3hsVs84lq1rJ-22">
          <mxGeometry relative="1" as="geometry">
            <mxPoint x="460" y="400" as="targetPoint" />
          </mxGeometry>
        </mxCell>
        <mxCell id="av2565oH3hsVs84lq1rJ-22" value="0x00000000009e7010" style="rounded=0;whiteSpace=wrap;html=1;" vertex="1" parent="1">
          <mxGeometry x="140" y="360" width="180" height="80" as="geometry" />
        </mxCell>
        <mxCell id="av2565oH3hsVs84lq1rJ-23" value="0x6020A0&lt;div&gt;heaparray&lt;br&gt;&lt;/div&gt;" style="text;strokeColor=none;align=center;fillColor=none;html=1;verticalAlign=middle;whiteSpace=wrap;rounded=0;" vertex="1" parent="1">
          <mxGeometry x="50" y="385" width="70" height="30" as="geometry" />
        </mxCell>
        <mxCell id="av2565oH3hsVs84lq1rJ-24" value="&lt;div&gt;0x0000000000000010&lt;/div&gt;" style="rounded=0;whiteSpace=wrap;html=1;" vertex="1" parent="1">
          <mxGeometry x="460" y="380" width="240" height="40" as="geometry" />
        </mxCell>
        <mxCell id="av2565oH3hsVs84lq1rJ-25" style="edgeStyle=orthogonalEdgeStyle;rounded=0;orthogonalLoop=1;jettySize=auto;html=1;exitX=1;exitY=0.5;exitDx=0;exitDy=0;entryX=0;entryY=0.5;entryDx=0;entryDy=0;" edge="1" parent="1" source="av2565oH3hsVs84lq1rJ-26" target="av2565oH3hsVs84lq1rJ-27">
          <mxGeometry relative="1" as="geometry" />
        </mxCell>
        <mxCell id="av2565oH3hsVs84lq1rJ-26" value="&lt;div&gt;&lt;span style=&quot;background-color: initial;&quot;&gt;0x00000000009e7030&lt;/span&gt;&lt;/div&gt;" style="rounded=0;whiteSpace=wrap;html=1;" vertex="1" parent="1">
          <mxGeometry x="460" y="420" width="240" height="50" as="geometry" />
        </mxCell>
        <mxCell id="av2565oH3hsVs84lq1rJ-27" value="aaaaaaaaaaa" style="rounded=0;whiteSpace=wrap;html=1;" vertex="1" parent="1">
          <mxGeometry x="860" y="422.5" width="240" height="45" as="geometry" />
        </mxCell>
        <mxCell id="av2565oH3hsVs84lq1rJ-28" value="0x0000000000000021&lt;div&gt;0x0000000000000041&lt;/div&gt;" style="rounded=0;whiteSpace=wrap;html=1;" vertex="1" parent="1">
          <mxGeometry x="460" y="340" width="240" height="40" as="geometry" />
        </mxCell>
        <mxCell id="av2565oH3hsVs84lq1rJ-29" value="0x0000000000000000" style="rounded=0;whiteSpace=wrap;html=1;" vertex="1" parent="1">
          <mxGeometry x="460" y="300" width="240" height="40" as="geometry" />
        </mxCell>
        <mxCell id="av2565oH3hsVs84lq1rJ-30" value="0x00000000009e7000" style="text;strokeColor=none;align=center;fillColor=none;html=1;verticalAlign=middle;whiteSpace=wrap;rounded=0;" vertex="1" parent="1">
          <mxGeometry x="310" y="300" width="150" height="30" as="geometry" />
        </mxCell>
        <mxCell id="av2565oH3hsVs84lq1rJ-31" value="0x00000000009e7008" style="text;strokeColor=none;align=center;fillColor=none;html=1;verticalAlign=middle;whiteSpace=wrap;rounded=0;" vertex="1" parent="1">
          <mxGeometry x="310" y="340" width="150" height="30" as="geometry" />
        </mxCell>
        <mxCell id="av2565oH3hsVs84lq1rJ-32" value="0x00000000009e7020" style="text;strokeColor=none;align=center;fillColor=none;html=1;verticalAlign=middle;whiteSpace=wrap;rounded=0;" vertex="1" parent="1">
          <mxGeometry x="730" y="340" width="120" height="30" as="geometry" />
        </mxCell>
        <mxCell id="av2565oH3hsVs84lq1rJ-33" value="0x00000000009e7028" style="text;strokeColor=none;align=center;fillColor=none;html=1;verticalAlign=middle;whiteSpace=wrap;rounded=0;" vertex="1" parent="1">
          <mxGeometry x="730" y="386.25" width="120" height="30" as="geometry" />
        </mxCell>
        <mxCell id="av2565oH3hsVs84lq1rJ-34" value="0x0000000000000000" style="rounded=0;whiteSpace=wrap;html=1;" vertex="1" parent="1">
          <mxGeometry x="860" y="340" width="240" height="40" as="geometry" />
        </mxCell>
        <mxCell id="av2565oH3hsVs84lq1rJ-35" value="0x0000000000000021" style="rounded=0;whiteSpace=wrap;html=1;" vertex="1" parent="1">
          <mxGeometry x="860" y="382.5" width="240" height="40" as="geometry" />
        </mxCell>
      </root>
    </mxGraphModel>
  </diagram>
</mxfile>
